<?xml version="1.0" encoding="iso-8859-1"?>
<!-- Generator: Adobe Illustrator 19.0.0, SVG Export Plug-In . SVG Version: 6.00 Build 0)  -->
<svg version="1.1" id="Capa_1" xmlns="http://www.w3.org/2000/svg" xmlns:xlink="http://www.w3.org/1999/xlink" x="0px" y="0px"
	 viewBox="0 0 512 512" style="enable-background:new 0 0 512 512;" xml:space="preserve">
<g>
	<g>
		<path d="M352.636,81.017l-58.345-8.481l-26.089-52.881c-2.52-5.127-7.734-8.364-13.447-8.364s-10.928,3.237-13.447,8.364
			l-26.104,52.881l-58.345,8.481c-12.264,1.778-17.194,16.924-8.32,25.576l42.231,41.147l-9.976,58.125
			c-2.106,12.25,10.838,21.619,21.768,15.806l52.192-27.437l52.178,27.437c10.908,5.744,23.884-3.495,21.768-15.806l-9.976-58.125
			l42.231-41.147C369.829,97.942,364.9,82.795,352.636,81.017z"/>
	</g>
</g>
<g>
	<g>
		<path d="M493.729,209.059l-30.586-4.453l-13.696-27.729c-5.039-10.254-21.855-10.254-26.895,0l-13.696,27.729l-30.586,4.453
			c-12.264,1.778-17.194,16.924-8.32,25.576l22.148,21.592l-5.229,30.483c-2.109,12.275,10.906,21.584,21.768,15.806L436,288.131
			l27.363,14.385c10.908,5.744,23.884-3.495,21.768-15.806l-5.229-30.483l22.148-21.592
			C510.923,225.984,505.994,210.837,493.729,209.059z"/>
	</g>
</g>
<g>
	<g>
		<path d="M133.73,179.059l-30.586-4.453l-13.696-27.729c-5.039-10.254-21.855-10.254-26.895,0l-13.696,27.729l-30.586,4.453
			c-12.265,1.778-17.194,16.925-8.321,25.576l22.148,21.592l-5.229,30.483c-2.115,12.305,10.939,21.583,21.768,15.806L76,258.131
			l27.363,14.385c10.908,5.744,23.884-3.495,21.768-15.806l-5.229-30.483l22.148-21.592
			C150.923,195.983,145.994,180.837,133.73,179.059z"/>
	</g>
</g>
<g>
	<g>
		<path d="M15,350.709c-8.291,0-15,6.709-15,15v120c0,8.291,6.709,15,15,15h106v-150H15z"/>
	</g>
</g>
<g>
	<g>
		<path d="M497,380.709H391v120h106c8.291,0,15-6.709,15-15v-90C512,387.418,505.291,380.709,497,380.709z"/>
	</g>
</g>
<g>
	<g>
		<path d="M346,290.709H166c-8.291,0-15,6.709-15,15c0,51.021,0,85.087,0,195c42.589,0,160.259,0,210,0c0-41.685,0-152.506,0-195
			C361,297.418,354.291,290.709,346,290.709z M286,440.709h-60c-8.291,0-15-6.709-15-15c0-8.291,6.709-15,15-15h15v-30h-15
			c-8.291,0-15-6.709-15-15c0-8.291,6.709-15,15-15h30c8.291,0,15,6.709,15,15v45h15c8.291,0,15,6.709,15,15
			C301,434,294.291,440.709,286,440.709z"/>
	</g>
</g>
<g>
</g>
<g>
</g>
<g>
</g>
<g>
</g>
<g>
</g>
<g>
</g>
<g>
</g>
<g>
</g>
<g>
</g>
<g>
</g>
<g>
</g>
<g>
</g>
<g>
</g>
<g>
</g>
<g>
</g>
</svg>
